<svg viewBox="0 0 72 72" xmlns="http://www.w3.org/2000/svg"><path clip-rule="evenodd" d="m42.1469 10.948h3.7013c.0001.0254.0002.0507.0002.0761 0 2.5601-.9327 4.9505-2.7919 7.163-2.2436 2.6302-4.9573 4.1501-7.9001 3.9102-.0375-.3071-.0592-.6303-.0592-.97 0-2.4577 1.0669-5.0879 2.9617-7.2385.9459-1.0889 2.149-1.9943 3.608-2.7165.161-.0787.321-.1535.48-.2243zm-26.9483 19.9074c.1901-.3972.3973-.7834.6213-1.1587 1.1637-1.9916 2.7119-3.5627 4.6495-4.716s4.0312-1.7411 6.2858-1.7787c1.2337 0 2.8515.3827 4.8619 1.1347 2.0047.7546 3.2919 1.1372 3.8563 1.1372.4219 0 1.8519-.4474 4.276-1.3394 2.2925-.8272 4.2273-1.1698 5.8123-1.0348 4.2949.3475 7.5217 2.0453 9.6676 5.104-1.2833.7797-2.3499 1.6637-3.2 2.6517z" fill="#5c9e31" fill-rule="evenodd"/><path d="m42.1469 10.948v-1.00003c-.1402 0-.2789.02951-.4071.08663zm3.7013 0 .9999-.0071c-.0039-.5495-.4504-.99293-.9999-.99293zm-2.7917 7.2391.7609.649.0047-.0057zm-7.9001 3.9102-.9926.1212c.0575.4712.4383.837.9114.8755zm2.9025-8.2085.7503.6611.0046-.0053zm3.608-2.7165-.4391-.8985-.0046.0023zm-26.4683 19.6831-.902-.4318c-.1483.3098-.1272.6741.0559.9648s.5026.467.8461.467zm.6213-1.1587.8586.5127.0049-.0082zm4.6495-4.716-.5115-.8593zm6.2858-1.7787v-1c-.0055 0-.0111.0001-.0166.0002zm4.8619 1.1347.3522-.9359-.0019-.0007zm8.1323-.2022-.3394-.9407-.0059.0022zm5.8123-1.0348-.0849.9964.0042.0003zm9.6676 5.104.5192.8546c.2364-.1436.4028-.3788.4595-.6495.0567-.2708-.0012-.553-.1601-.7794zm-3.2 2.6517v1c.2913 0 .5681-.127.758-.3478zm-9.8824-18.9074h3.7013v-2.00003h-3.7013zm2.7013-.993c.0001.023.0002.046.0002.0691h2c0-.0277-.0001-.0554-.0003-.0832zm.0002.0691c0 2.294-.8287 4.4623-2.5575 6.5196l1.5312 1.2867c1.9896-2.3677 3.0263-4.9801 3.0263-7.8063zm-2.5527 6.514c-2.1202 2.4856-4.5471 3.7672-7.0581 3.5625l-.1624 1.9934c3.3746.2751 6.3752-1.4831 8.7421-4.258zm-6.1467 4.438c-.0329-.2693-.0518-.552-.0518-.8488h-2c0 .3825.0245.7463.0666 1.0912zm-.0518-.8488c0-2.1779.9523-4.5802 2.712-6.5774l-1.5006-1.3222c-2.0299 2.3039-3.2114 5.1621-3.2114 7.8996zm2.7166-6.5827c.8485-.9767 1.941-1.805 3.2968-2.4761l-.8874-1.7924c-1.5621.7733-2.8758 1.7558-3.9192 2.9569zm3.2922-2.4739c.1507-.0736.3-.1434.448-.2093l-.8142-1.8268c-.1701.0758-.3407.1556-.512.2392zm-26.0054 19.2165c.177-.3698.3696-.729.5779-1.0778l-1.7171-1.0254c-.2399.4018-.4615.815-.6648 1.2396zm.5828-1.086c1.0804-1.8492 2.509-3.2966 4.2975-4.3612l-1.023-1.7186c-2.0867 1.2421-3.7544 2.9368-5.0014 5.0708zm4.2975-4.3612c1.7859-1.063 3.7086-1.6034 5.791-1.6381l-.0333-1.9997c-2.4269.0405-4.6914.6756-6.7807 1.9192zm5.7743-1.638c1.0547 0 2.5393.3336 4.5115 1.0713l.7007-1.8732c-2.0485-.7663-3.7995-1.1981-5.2122-1.1981zm4.5096 1.0706c1.0129.3813 1.8613.675 2.5372.8747.6423.1898 1.2296.3266 1.6714.3266v-2c-.1226 0-.4611-.0544-1.1046-.2446-.61-.1802-1.4077-.4552-2.3995-.8285zm4.2086 1.2013c.2344 0 .5034-.0546.7401-.1118.2613-.0631.5786-.154.9459-.2691.7361-.2305 1.7172-.5718 2.9354-1.02l-.6907-1.877c-1.2059.4438-2.1519.7722-2.8424.9884-.3459.1083-.6167.185-.8179.2337-.2259.0545-.2938.0558-.2704.0558zm4.6155-1.3988c2.2208-.8014 4.0019-1.097 5.3879-.979l.1697-1.9928c-1.784-.1519-3.8724.2375-6.2365 1.0906zm5.3921-.9787c4.0508.3278 6.9827 1.9066 8.9296 4.6816l1.6373-1.1486c-2.3449-3.3423-5.8665-5.1591-10.4056-5.5265zm9.229 3.2527c-1.3597.8261-2.5107 1.7755-3.4387 2.854l1.516 1.3045c.7722-.8974 1.7544-1.716 2.9612-2.4493zm-2.6807 2.5063h-36.8307v2h36.8307z" fill="#5c9e31"/><g clip-rule="evenodd" fill-rule="evenodd"><path d="m54.2597 29c-2.5664 1.8323-4.0889 4.167-4.5688 7h-35.923c.2949-2.2984.9787-4.3478 2.0521-6.1453.1718-.294.352-.579.5406-.8547z" fill="#fcea2b"/><path d="m49.8679 35c-.2376.9408-.3517 1.9408-.3421 2.9997.0195 1.8418.4038 3.5093 1.1515 5.0003h-36.6895c-.2584-1.5016-.3878-2.9796-.3878-4.4343 0-1.2515.0984-2.4402.2952-3.5657z" fill="#f4aa41"/><path d="m50.0749 42c.5638 1.7489 1.5608 3.2885 2.9896 4.6162 1.0524 1.0017 2.2278 1.7759 3.5355 2.3257-.0067.0194-.0134.0387-.02.0581h-41.0968c-.082-.2237-.1624-.4495-.2412-.6775-.7372-2.1531-1.2266-4.2604-1.4673-6.3225z" fill="#ea5a47"/><path d="m53.2427 56c.9372-1.3965 1.7551-2.9032 2.4561-4.5271.3182-.7584.6176-1.5483.9012-2.3731-.0773-.0325-.1541-.0657-.2305-.0998h-40.9438c.9503 2.6266 2.1298 4.9584 3.5384 7z" fill="#8967aa"/><path d="m26.1387 62c-1.0981-.264-2.1939-.9057-3.2883-1.9261-.9284-.812-2.076-2.17-3.4402-4.0739h33.3959c-1.3762 1.9501-2.5082 3.3081-3.3875 4.0739-1.1599 1.0696-2.3878 1.7105-3.6873 1.9261h-1.904c-.9296-.1354-1.9807-.4424-3.1498-.9245-1.6377-.6698-3.1426-1.0016-4.5187-1.0016-1.4432 0-2.9911.3318-4.6467 1.0016-1.1195.4545-2.0922.762-2.9202.9245z" fill="#61b2e4"/></g><path d="m35.1564 22.0973c-.0375-.3071-.0592-.6303-.0592-.97 0-2.4577 1.0669-5.0879 2.9617-7.2385.946-1.0889 2.1491-1.9943 3.608-2.7165 1.4558-.7115 2.8329-1.1049 4.128-1.1723.0378.3422.0535.6845.0535 1.0241 0 2.5601-.9327 4.9505-2.7918 7.163-.8303.9733-1.725 1.7946-2.6718 2.4309m15.314 30.2229c-.772 1.7884-1.6858 3.4347-2.7446 4.9483-1.4432 2.0633-2.6249 3.4915-3.5356 4.2847-1.4117 1.3018-2.9242 1.9685-4.5439 2.0064-1.1627 0-2.565-.3317-4.1972-1.0048-1.6377-.6699-3.1426-1.0016-4.5187-1.0016-1.4432 0-2.9911.3317-4.6466 1.0016-1.6582.6731-2.9939 1.0238-4.0152 1.0586-1.5532.0663-3.1013-.6194-4.6466-2.0602-.9863-.8627-2.22-2.3415-3.6978-4.4364-1.5857-2.2372-2.8893-4.8314-3.9106-7.7889-1.0937-3.1946-1.642-6.2881-1.642-9.2829 0-3.4306.7393-6.3895 2.22-8.869 1.1637-1.9916 2.7118-3.5627 4.6494-4.716s4.0312-1.7411 6.2858-1.7787c1.2337 0 2.8515.3827 4.8619 1.1347 2.0047.7546 3.292 1.1372 3.8563 1.1372.4219 0 1.8519-.4474 4.2761-1.3394 2.2924-.8272 4.2272-1.1698 5.8122-1.0348 4.2949.3475 7.5217 2.0453 9.6676 5.104-3.8412 2.3338-5.7413 5.6027-5.7035 9.796.0346 3.2663 1.2163 5.9844 3.5387 8.1426 1.0524 1.0016 2.2278 1.7758 3.5355 2.3256-.2836.8247-.5829 1.6146-.9012 2.373z" fill="none" stroke="#000" stroke-linecap="round" stroke-linejoin="round" stroke-width="2"/></svg>