<svg height="24" viewBox="0 0 24 24" width="24" xmlns="http://www.w3.org/2000/svg"><g fill="none" fill-rule="evenodd" transform="translate(0 1)"><path d="m2.61341757 9.09629841c.10240023-.35800081.19160043-.67173486.28200064-.98493557.66533484-2.30147188 1.33120301-4.60307709 1.99587119-6.90481564.02586672-.09026688.05360012-.16306704.15666702-.2045338 1.15093594-.46133438 2.32680527-.82506854 3.56547475-.95893551 1.66560373-.18026707 3.19440723.20920048 4.60641043 1.09386915.1838671.11533359.3617342.23986721.5497346.34720079.1198669.06880015.1368003.14146698.0982669.27186728-.5525346 1.89667096-1.0997359 3.79547527-1.6482704 5.6936129-.1913338.66173483-.3880009 1.32266967-.5732013 1.98667117-.0412001.14773367-.0753335.17266706-.2117338.07946685-.8136019-.55266792-1.6718705-1.01626897-2.63253934-1.26320287-1.21213608-.31146737-2.42267216-.24893389-3.63214156.01586671-.86173529.18866709-1.69227051.47346774-2.55653913.82786854" fill="#f35325"/><path d="m17.2771841 12.0252117c-1.5290701.0104-2.8777398-.5265345-4.133876-1.3514697-.3550675-.2340005-.3546675-.2314672-.2380005-.6345348.7112016-2.45867223 1.4208032-4.91801113 2.1341381-7.37628337.0696002-.24093388.0181334-.28493398.2886674-.10360023.896002.59960135 1.8396041 1.09320247 2.9084065 1.3097363 1.1284026.22840051 2.2486718.15040034 3.3622743-.09880023.7002683-.15680035 1.3804032-.37680085 2.0482713-.63480144.0962669-.03693341.1949338-.09880022.2940007-.00720001.0968002.08946687.0520001.19013376.0221334.29266733-.7132016 2.46520558-1.4260032 4.93041117-2.1342715 7.39695005-.0325334.1152003-.0928002.1714671-.1993338.2141339-1.1624026.4653344-2.3517387.8313352-3.6050748.9509355-.2480006.0237333-.4978678.0286667-.7473351.0422667" fill="#81bc06"/><path d="m21.3774601 12.3517725c-.1560004.5398678-.299334 1.0365356-.4429343 1.5333368-.6012014 2.0806713-1.2050694 4.1616094-1.8006708 6.2445474-.0489334.1698671-.134667.2572006-.2982673.3202674-1.025469.3954676-2.0684047.720535-3.1625405.8742687-1.6932039.2373339-3.2680074-.0826669-4.7301441-.9636022-.2418672-.145467-.4753344-.3060007-.7190683-.4486677-.1204003-.0706668-.1317336-.145067-.0937335-.2729339.5229345-1.7961374 1.0404023-3.5944082 1.5601368-5.3917456.2110672-.7316016.4229343-1.46347.6345348-2.194405.0674668-.2305338.0682668-.2294671.2794673-.0905335.7600017.5017345 1.5518702.9362688 2.4345389 1.1866694 1.2730695.3604008 2.5470724.300934 3.822542.0181333.8485352-.1876004 1.6672037-.4717344 2.516139-.8153351" fill="#ffba08"/><path d="m11.1789303 11.0465695c-.1282669.442001-.2472005.8517353-.3657341 1.2616029-.6234681 2.1560048-1.24893621 4.3121431-1.86640428 6.470148-.05360012.185067-.10293356.1893337-.2525339.0872001-.85706861-.5845346-1.76453734-1.0645357-2.78680632-1.2974696-1.15760262-.2644006-2.3090719-.1930671-3.45840784.0588002-.7198683.1576003-1.41853655.3845342-2.1061381.6489348-.09040021.0346667-.18293375.0848002-.2770673.0077333-.10533357-.0858668-.05960013-.1906671-.03066673-.2906673.71133494-2.4588056 1.42320322-4.9173445 2.13293816-7.37655.03026674-.1025336.08160019-.1618671.18480042-.2032005 1.18080268-.47506775 2.38880542-.84400192 3.6628083-.96186885 1.5713369-.144667 3.02654019.21213381 4.37254329 1.02866895.2298671.1396004.4569343.284934.6841348.4301344.0578668.0374667.1380004.0700001.1065336.1365336" fill="#05a6f0"/></g></svg>